<mxfile host="app.diagrams.net" modified="2023-12-22T18:55:10.971Z" agent="Mozilla/5.0 (Windows NT 10.0; Win64; x64) AppleWebKit/537.36 (KHTML, like Gecko) Chrome/120.0.0.0 Safari/537.36" etag="l_EmzthxYQjwn0RXoDAo" version="22.1.11" type="device">
  <diagram name="Pagina-1" id="7FEZja1Ej7AJz3yaift5">
    <mxGraphModel dx="1050" dy="565" grid="1" gridSize="10" guides="1" tooltips="1" connect="1" arrows="1" fold="1" page="1" pageScale="1" pageWidth="827" pageHeight="1169" math="0" shadow="0">
      <root>
        <mxCell id="0" />
        <mxCell id="1" parent="0" />
        <mxCell id="Ezdaav6W6l-rY9EZb841-1" value="&lt;h1&gt;&lt;br&gt;&lt;/h1&gt;" style="rounded=0;whiteSpace=wrap;html=1;align=center;horizontal=1;verticalAlign=top;dashed=1;" parent="1" vertex="1">
          <mxGeometry x="126" y="90" width="774" height="561" as="geometry" />
        </mxCell>
        <mxCell id="Ezdaav6W6l-rY9EZb841-2" value="Cliente" style="shape=umlActor;verticalLabelPosition=bottom;verticalAlign=top;html=1;outlineConnect=0;align=center;" parent="1" vertex="1">
          <mxGeometry x="62" y="341" width="40" height="80" as="geometry" />
        </mxCell>
        <mxCell id="Ezdaav6W6l-rY9EZb841-3" value="&lt;font style=&quot;font-size: 11px;&quot;&gt;RegistrazioneCliente&lt;/font&gt;" style="ellipse;whiteSpace=wrap;html=1;" parent="1" vertex="1">
          <mxGeometry x="182" y="210" width="120" height="60" as="geometry" />
        </mxCell>
        <mxCell id="Ezdaav6W6l-rY9EZb841-4" value="AggiuntaProdottoCarrello" style="ellipse;whiteSpace=wrap;html=1;" parent="1" vertex="1">
          <mxGeometry x="590" y="351" width="144" height="60" as="geometry" />
        </mxCell>
        <mxCell id="Ezdaav6W6l-rY9EZb841-6" value="" style="endArrow=none;html=1;rounded=0;" parent="1" target="Ezdaav6W6l-rY9EZb841-3" edge="1">
          <mxGeometry width="50" height="50" relative="1" as="geometry">
            <mxPoint x="122" y="371" as="sourcePoint" />
            <mxPoint x="346" y="301" as="targetPoint" />
          </mxGeometry>
        </mxCell>
        <mxCell id="Ezdaav6W6l-rY9EZb841-7" value="&lt;font style=&quot;font-size: 14px;&quot;&gt;Checkout&lt;/font&gt;" style="ellipse;whiteSpace=wrap;html=1;fontSize=14;" parent="1" vertex="1">
          <mxGeometry x="601" y="211" width="122" height="59" as="geometry" />
        </mxCell>
        <mxCell id="Ezdaav6W6l-rY9EZb841-8" value="&lt;font style=&quot;font-size: 10px;&quot;&gt;RicercaProdotto&lt;/font&gt;" style="ellipse;whiteSpace=wrap;html=1;" parent="1" vertex="1">
          <mxGeometry x="386" y="351" width="120" height="60" as="geometry" />
        </mxCell>
        <mxCell id="Ezdaav6W6l-rY9EZb841-10" value="&amp;lt;&amp;lt;extend&amp;gt;&amp;gt;" style="endArrow=classic;html=1;rounded=0;dashed=1;dashPattern=8 8;align=left;exitX=0;exitY=0.5;exitDx=0;exitDy=0;entryX=1;entryY=0.5;entryDx=0;entryDy=0;" parent="1" source="Ezdaav6W6l-rY9EZb841-4" target="Ezdaav6W6l-rY9EZb841-8" edge="1">
          <mxGeometry x="0.5787" y="-51" width="50" height="50" relative="1" as="geometry">
            <mxPoint x="512" y="422" as="sourcePoint" />
            <mxPoint x="489" y="360" as="targetPoint" />
            <mxPoint as="offset" />
          </mxGeometry>
        </mxCell>
        <mxCell id="Ezdaav6W6l-rY9EZb841-11" value="&amp;lt;&amp;lt;extend&amp;gt;&amp;gt;" style="endArrow=classic;html=1;rounded=0;dashed=1;dashPattern=8 8;align=left;" parent="1" target="Ezdaav6W6l-rY9EZb841-4" edge="1">
          <mxGeometry x="0.7" y="-11" width="50" height="50" relative="1" as="geometry">
            <mxPoint x="662" y="270" as="sourcePoint" />
            <mxPoint x="626" y="267" as="targetPoint" />
            <mxPoint as="offset" />
          </mxGeometry>
        </mxCell>
        <mxCell id="Ezdaav6W6l-rY9EZb841-13" value="&lt;font style=&quot;font-size: 13px;&quot;&gt;RimozioneProdottoCarrello&lt;/font&gt;" style="ellipse;whiteSpace=wrap;html=1;fontSize=13;" parent="1" vertex="1">
          <mxGeometry x="580.5" y="471" width="163" height="80" as="geometry" />
        </mxCell>
        <mxCell id="Ezdaav6W6l-rY9EZb841-14" value="&amp;lt;&amp;lt;extend&amp;gt;&amp;gt;" style="endArrow=classic;html=1;rounded=0;dashed=1;dashPattern=8 8;align=left;entryX=0.5;entryY=1;entryDx=0;entryDy=0;" parent="1" source="Ezdaav6W6l-rY9EZb841-13" target="Ezdaav6W6l-rY9EZb841-4" edge="1">
          <mxGeometry x="0.6757" y="-7" width="50" height="50" relative="1" as="geometry">
            <mxPoint x="706" y="381" as="sourcePoint" />
            <mxPoint x="656" y="511" as="targetPoint" />
            <mxPoint as="offset" />
          </mxGeometry>
        </mxCell>
        <mxCell id="Ezdaav6W6l-rY9EZb841-15" value="Login_user" style="shape=note;size=15;align=left;spacingLeft=10;html=1;whiteSpace=wrap;" parent="1" vertex="1">
          <mxGeometry x="192" y="301" width="100" height="40" as="geometry" />
        </mxCell>
        <mxCell id="Ezdaav6W6l-rY9EZb841-16" value="Registrazione" style="shape=note;size=15;align=left;spacingLeft=10;html=1;whiteSpace=wrap;" parent="1" vertex="1">
          <mxGeometry x="192" y="151" width="100" height="40" as="geometry" />
        </mxCell>
        <mxCell id="Ezdaav6W6l-rY9EZb841-17" value="Rimuovi_dal_carrello" style="shape=note;size=15;align=left;spacingLeft=10;html=1;whiteSpace=wrap;" parent="1" vertex="1">
          <mxGeometry x="603" y="565" width="137" height="40" as="geometry" />
        </mxCell>
        <mxCell id="Ezdaav6W6l-rY9EZb841-20" value="Prodotti" style="shape=note;size=15;align=left;spacingLeft=10;html=1;whiteSpace=wrap;" parent="1" vertex="1">
          <mxGeometry x="413" y="301" width="66" height="40" as="geometry" />
        </mxCell>
        <mxCell id="Ezdaav6W6l-rY9EZb841-21" value="&lt;font style=&quot;font-size: 10px;&quot;&gt;Login&lt;/font&gt;" style="ellipse;whiteSpace=wrap;html=1;" parent="1" vertex="1">
          <mxGeometry x="182" y="351" width="98" height="60" as="geometry" />
        </mxCell>
        <mxCell id="Ezdaav6W6l-rY9EZb841-22" value="" style="endArrow=none;html=1;rounded=0;entryX=0;entryY=0.5;entryDx=0;entryDy=0;" parent="1" target="Ezdaav6W6l-rY9EZb841-21" edge="1">
          <mxGeometry width="50" height="50" relative="1" as="geometry">
            <mxPoint x="122" y="381" as="sourcePoint" />
            <mxPoint x="246" y="441" as="targetPoint" />
          </mxGeometry>
        </mxCell>
        <mxCell id="Ezdaav6W6l-rY9EZb841-23" value="&amp;lt;&amp;lt;extend&amp;gt;&amp;gt;" style="endArrow=classic;html=1;rounded=0;dashed=1;dashPattern=8 8;align=left;entryX=1;entryY=0.5;entryDx=0;entryDy=0;" parent="1" source="Ezdaav6W6l-rY9EZb841-8" target="Ezdaav6W6l-rY9EZb841-21" edge="1">
          <mxGeometry x="0.619" y="-11" width="50" height="50" relative="1" as="geometry">
            <mxPoint x="516" y="391" as="sourcePoint" />
            <mxPoint x="308" y="380" as="targetPoint" />
            <mxPoint as="offset" />
          </mxGeometry>
        </mxCell>
        <mxCell id="Ezdaav6W6l-rY9EZb841-28" value="&lt;h1&gt;&lt;br&gt;&lt;/h1&gt;" style="rounded=0;whiteSpace=wrap;html=1;align=center;horizontal=1;verticalAlign=top;dashed=1;" parent="1" vertex="1">
          <mxGeometry x="126" y="670" width="764" height="446" as="geometry" />
        </mxCell>
        <mxCell id="Ezdaav6W6l-rY9EZb841-31" value="ModificaProdotto" style="ellipse;whiteSpace=wrap;html=1;" parent="1" vertex="1">
          <mxGeometry x="593" y="836" width="144" height="60" as="geometry" />
        </mxCell>
        <mxCell id="Ezdaav6W6l-rY9EZb841-33" value="&lt;font style=&quot;font-size: 14px;&quot;&gt;AggiuntaProdotto&lt;/font&gt;" style="ellipse;whiteSpace=wrap;html=1;fontSize=14;" parent="1" vertex="1">
          <mxGeometry x="604" y="696" width="122" height="59" as="geometry" />
        </mxCell>
        <mxCell id="Ezdaav6W6l-rY9EZb841-34" value="&lt;font style=&quot;font-size: 10px;&quot;&gt;VisualizzaDashboard&lt;/font&gt;" style="ellipse;whiteSpace=wrap;html=1;" parent="1" vertex="1">
          <mxGeometry x="389" y="836" width="120" height="60" as="geometry" />
        </mxCell>
        <mxCell id="Ezdaav6W6l-rY9EZb841-35" value="&amp;lt;&amp;lt;extend&amp;gt;&amp;gt;" style="endArrow=classic;html=1;rounded=0;dashed=1;dashPattern=8 8;align=left;exitX=0;exitY=0.5;exitDx=0;exitDy=0;entryX=1;entryY=0.5;entryDx=0;entryDy=0;" parent="1" source="Ezdaav6W6l-rY9EZb841-31" target="Ezdaav6W6l-rY9EZb841-34" edge="1">
          <mxGeometry x="-0.2143" y="-46" width="50" height="50" relative="1" as="geometry">
            <mxPoint x="515" y="907" as="sourcePoint" />
            <mxPoint x="492" y="845" as="targetPoint" />
            <mxPoint as="offset" />
          </mxGeometry>
        </mxCell>
        <mxCell id="Ezdaav6W6l-rY9EZb841-36" value="&amp;lt;&amp;lt;extend&amp;gt;&amp;gt;" style="endArrow=classic;html=1;rounded=0;dashed=1;dashPattern=8 8;align=left;exitX=0.5;exitY=1;exitDx=0;exitDy=0;entryX=1;entryY=0;entryDx=0;entryDy=0;" parent="1" source="Ezdaav6W6l-rY9EZb841-33" target="Ezdaav6W6l-rY9EZb841-34" edge="1">
          <mxGeometry x="-0.9655" y="83" width="50" height="50" relative="1" as="geometry">
            <mxPoint x="665" y="725" as="sourcePoint" />
            <mxPoint x="629" y="752" as="targetPoint" />
            <mxPoint as="offset" />
          </mxGeometry>
        </mxCell>
        <mxCell id="Ezdaav6W6l-rY9EZb841-37" value="&lt;font style=&quot;font-size: 13px;&quot;&gt;RimozioneProdotto&lt;/font&gt;" style="ellipse;whiteSpace=wrap;html=1;fontSize=13;" parent="1" vertex="1">
          <mxGeometry x="590.75" y="950" width="146.25" height="64" as="geometry" />
        </mxCell>
        <mxCell id="Ezdaav6W6l-rY9EZb841-38" value="&amp;lt;&amp;lt;extend&amp;gt;&amp;gt;" style="endArrow=classic;html=1;rounded=0;dashed=1;dashPattern=8 8;align=left;entryX=0.5;entryY=1;entryDx=0;entryDy=0;" parent="1" source="Ezdaav6W6l-rY9EZb841-37" target="Ezdaav6W6l-rY9EZb841-31" edge="1">
          <mxGeometry x="0.6757" y="-7" width="50" height="50" relative="1" as="geometry">
            <mxPoint x="709" y="866" as="sourcePoint" />
            <mxPoint x="659" y="996" as="targetPoint" />
            <mxPoint as="offset" />
          </mxGeometry>
        </mxCell>
        <mxCell id="Ezdaav6W6l-rY9EZb841-39" value="Login_user" style="shape=note;size=15;align=left;spacingLeft=10;html=1;whiteSpace=wrap;" parent="1" vertex="1">
          <mxGeometry x="195" y="786" width="100" height="40" as="geometry" />
        </mxCell>
        <mxCell id="Ezdaav6W6l-rY9EZb841-42" value="Dashboard" style="shape=note;size=15;align=left;spacingLeft=10;html=1;whiteSpace=wrap;" parent="1" vertex="1">
          <mxGeometry x="416" y="786" width="84" height="40" as="geometry" />
        </mxCell>
        <mxCell id="Ezdaav6W6l-rY9EZb841-43" value="&lt;span style=&quot;font-size: 10px;&quot;&gt;Login&lt;/span&gt;" style="ellipse;whiteSpace=wrap;html=1;" parent="1" vertex="1">
          <mxGeometry x="185" y="836" width="98" height="60" as="geometry" />
        </mxCell>
        <mxCell id="Ezdaav6W6l-rY9EZb841-44" value="" style="endArrow=none;html=1;rounded=0;entryX=0;entryY=0.5;entryDx=0;entryDy=0;" parent="1" target="Ezdaav6W6l-rY9EZb841-43" edge="1">
          <mxGeometry width="50" height="50" relative="1" as="geometry">
            <mxPoint x="110" y="866" as="sourcePoint" />
            <mxPoint x="249" y="926" as="targetPoint" />
          </mxGeometry>
        </mxCell>
        <mxCell id="Ezdaav6W6l-rY9EZb841-45" value="&amp;lt;&amp;lt;extend&amp;gt;&amp;gt;" style="endArrow=classic;html=1;rounded=0;dashed=1;dashPattern=8 8;align=left;entryX=1;entryY=0.5;entryDx=0;entryDy=0;" parent="1" source="Ezdaav6W6l-rY9EZb841-34" target="Ezdaav6W6l-rY9EZb841-43" edge="1">
          <mxGeometry x="0.619" y="-11" width="50" height="50" relative="1" as="geometry">
            <mxPoint x="519" y="876" as="sourcePoint" />
            <mxPoint x="311" y="865" as="targetPoint" />
            <mxPoint as="offset" />
          </mxGeometry>
        </mxCell>
        <object label="Amministratore" id="Ezdaav6W6l-rY9EZb841-58">
          <mxCell style="shape=umlActor;verticalLabelPosition=bottom;verticalAlign=top;html=1;outlineConnect=0;" parent="1" vertex="1">
            <mxGeometry x="67" y="836" width="30" height="60" as="geometry" />
          </mxCell>
        </object>
        <mxCell id="l9BAjWVYTZ97ycQmpz7O-1" value="Checkout" style="shape=note;size=15;align=left;spacingLeft=10;html=1;whiteSpace=wrap;" vertex="1" parent="1">
          <mxGeometry x="615" y="151" width="75" height="40" as="geometry" />
        </mxCell>
        <mxCell id="l9BAjWVYTZ97ycQmpz7O-2" value="Aggiungi_al_carrello" style="shape=note;size=15;align=left;spacingLeft=10;html=1;whiteSpace=wrap;" vertex="1" parent="1">
          <mxGeometry x="750" y="361" width="140" height="40" as="geometry" />
        </mxCell>
        <mxCell id="l9BAjWVYTZ97ycQmpz7O-3" value="Aggiungi_prodotto" style="shape=note;size=15;align=left;spacingLeft=10;html=1;whiteSpace=wrap;" vertex="1" parent="1">
          <mxGeometry x="750" y="705.5" width="121" height="40" as="geometry" />
        </mxCell>
        <mxCell id="l9BAjWVYTZ97ycQmpz7O-4" value="Modifica_prodotto" style="shape=note;size=15;align=left;spacingLeft=10;html=1;whiteSpace=wrap;" vertex="1" parent="1">
          <mxGeometry x="750" y="846" width="121" height="40" as="geometry" />
        </mxCell>
        <mxCell id="l9BAjWVYTZ97ycQmpz7O-5" value="Elimina_prodotto" style="shape=note;size=15;align=left;spacingLeft=10;html=1;whiteSpace=wrap;" vertex="1" parent="1">
          <mxGeometry x="750" y="962" width="121" height="40" as="geometry" />
        </mxCell>
      </root>
    </mxGraphModel>
  </diagram>
</mxfile>
